<?xml version="1.0" encoding="UTF-8" standalone="no"?>
<!DOCTYPE svg PUBLIC "-//W3C//DTD SVG 1.1//EN" "http://www.w3.org/Graphics/SVG/1.1/DTD/svg11.dtd">
<svg width="100%" height="100%" viewBox="0 0 2100 2100" version="1.1" xmlns="http://www.w3.org/2000/svg" xmlns:xlink="http://www.w3.org/1999/xlink" xml:space="preserve" xmlns:serif="http://www.serif.com/" style="fill-rule:evenodd;clip-rule:evenodd;stroke-linejoin:round;stroke-miterlimit:2;">
    <g transform="matrix(1.33333,0,0,1,-350,150)">
        <path d="M600,683.333L1500,683.333C1534.5,683.333 1562.5,645.993 1562.5,600C1562.5,554.007 1534.5,516.667 1500,516.667L600,516.667C565.505,516.667 537.5,554.007 537.5,600C537.5,645.993 565.505,683.333 600,683.333Z"/>
    </g>
    <g transform="matrix(1.33333,0,0,1,-350,150)">
        <path d="M600,983.333L1500,983.333C1534.5,983.333 1562.5,945.993 1562.5,900C1562.5,854.007 1534.5,816.667 1500,816.667L600,816.667C565.505,816.667 537.5,854.007 537.5,900C537.5,945.993 565.505,983.333 600,983.333Z"/>
    </g>
    <g transform="matrix(1.33333,0,0,1,-350,450)">
        <path d="M600,983.333L1500,983.333C1534.5,983.333 1562.5,945.993 1562.5,900C1562.5,854.007 1534.5,816.667 1500,816.667L600,816.667C565.505,816.667 537.5,854.007 537.5,900C537.5,945.993 565.505,983.333 600,983.333Z"/>
    </g>
</svg>
