<?xml version="1.0" encoding="UTF-8" standalone="no"?>
<!DOCTYPE svg PUBLIC "-//W3C//DTD SVG 1.1//EN" "http://www.w3.org/Graphics/SVG/1.1/DTD/svg11.dtd">
<svg width="100%" height="100%" viewBox="0 0 2100 2100" version="1.1" xmlns="http://www.w3.org/2000/svg" xmlns:xlink="http://www.w3.org/1999/xlink" xml:space="preserve" xmlns:serif="http://www.serif.com/" style="fill-rule:evenodd;clip-rule:evenodd;stroke-linejoin:round;stroke-miterlimit:2;">
    <path d="M1883.33,600C1883.33,498.334 1842.95,400.831 1771.06,328.942C1699.17,257.053 1601.67,216.667 1500,216.667L600,216.667C498.334,216.667 400.831,257.053 328.942,328.942C257.053,400.831 216.667,498.334 216.667,600L216.667,1500C216.667,1601.67 257.053,1699.17 328.942,1771.06C400.831,1842.95 498.334,1883.33 600,1883.33C600,1883.33 1500,1883.33 1500,1883.33C1601.67,1883.33 1699.17,1842.95 1771.06,1771.06C1842.95,1699.17 1883.33,1601.67 1883.33,1500L1883.33,600ZM1716.67,600L1716.67,1500C1716.67,1557.46 1693.84,1612.57 1653.21,1653.21C1612.57,1693.84 1557.46,1716.67 1500,1716.67L600,1716.67C542.536,1716.67 487.426,1693.84 446.794,1653.21C406.161,1612.57 383.333,1557.46 383.333,1500L383.333,600C383.333,542.536 406.161,487.426 446.794,446.794C487.426,406.161 542.536,383.333 600,383.333L1500,383.333C1557.46,383.333 1612.57,406.161 1653.21,446.794C1693.84,487.426 1716.67,542.536 1716.67,600Z"/>
    <path d="M816.667,966.667L683.333,966.667L683.333,600C683.333,554.007 645.993,516.667 600,516.667C554.007,516.667 516.667,554.007 516.667,600L516.667,1500C516.667,1545.99 554.007,1583.33 600,1583.33C645.993,1583.33 683.333,1545.99 683.333,1500L683.333,1133.33L816.667,1133.33L816.667,1500C816.667,1545.99 854.007,1583.33 900,1583.33C945.993,1583.33 983.333,1545.99 983.333,1500L983.333,600C983.333,554.007 945.993,516.667 900,516.667C854.007,516.667 816.667,554.007 816.667,600L816.667,966.667Z"/>
    <path d="M1116.67,1500C1116.67,1545.99 1154.01,1583.33 1200,1583.33L1500,1583.33C1545.99,1583.33 1583.33,1545.99 1583.33,1500C1583.33,1454.01 1545.99,1416.67 1500,1416.67L1283.39,1416.67C1283.38,1397.38 1283.36,1375.24 1283.33,1349.92C1283.19,1191.03 1382.97,1082.47 1458.78,991.226C1531.56,903.62 1583.75,824.098 1583.33,749.533C1583.05,698.318 1582.05,662.273 1577.2,636.85C1570.64,602.455 1557.37,578.89 1539.73,561.038C1521.93,543.03 1498.37,529.447 1463.77,522.702C1438.24,517.729 1401.91,516.68 1350.02,516.667C1298.74,516.654 1262.65,517.255 1237.23,521.784C1202.39,527.991 1178.59,541.162 1160.61,558.757C1142.39,576.576 1128.62,600.317 1121.99,635.533C1117.16,661.171 1116.34,697.874 1116.67,750.516C1116.95,796.508 1154.52,833.617 1200.52,833.332C1246.51,833.047 1283.62,795.476 1283.33,749.484C1283.18,725.722 1284.14,701.326 1285.01,684.814C1301.11,684.12 1325.38,683.327 1349.98,683.333C1373.76,683.339 1398.31,684.491 1414.65,685.483C1415.5,701.369 1416.53,725.77 1416.67,750.467C1416.79,772.112 1401.98,792.118 1385.5,815.305C1358.22,853.71 1321.65,894.438 1285.18,939.945C1199.35,1047.04 1116.51,1177.46 1116.67,1350.08L1116.67,1500Z"/>
</svg>
