<?xml version="1.0" encoding="UTF-8" standalone="no"?>
<!DOCTYPE svg PUBLIC "-//W3C//DTD SVG 1.1//EN" "http://www.w3.org/Graphics/SVG/1.1/DTD/svg11.dtd">
<svg width="100%" height="100%" viewBox="0 0 2100 2100" version="1.1" xmlns="http://www.w3.org/2000/svg" xmlns:xlink="http://www.w3.org/1999/xlink" xml:space="preserve" xmlns:serif="http://www.serif.com/" style="fill-rule:evenodd;clip-rule:evenodd;stroke-linejoin:round;stroke-miterlimit:2;">
    <path d="M1883.33,600C1883.33,498.334 1842.95,400.831 1771.06,328.942C1699.17,257.053 1601.67,216.667 1500,216.667L600,216.667C498.334,216.667 400.831,257.053 328.942,328.942C257.053,400.831 216.667,498.334 216.667,600L216.667,1500C216.667,1601.67 257.053,1699.17 328.942,1771.06C400.831,1842.95 498.334,1883.33 600,1883.33C600,1883.33 1500,1883.33 1500,1883.33C1601.67,1883.33 1699.17,1842.95 1771.06,1771.06C1842.95,1699.17 1883.33,1601.67 1883.33,1500L1883.33,600ZM1716.67,600L1716.67,1500C1716.67,1557.46 1693.84,1612.57 1653.21,1653.21C1612.57,1693.84 1557.46,1716.67 1500,1716.67L600,1716.67C542.536,1716.67 487.426,1693.84 446.794,1653.21C406.161,1612.57 383.333,1557.46 383.333,1500L383.333,600C383.333,542.536 406.161,487.426 446.794,446.794C487.426,406.161 542.536,383.333 600,383.333L1500,383.333C1557.46,383.333 1612.57,406.161 1653.21,446.794C1693.84,487.426 1716.67,542.536 1716.67,600Z"/>
    <path d="M816.667,966.667L683.333,966.667L683.333,600C683.333,554.007 645.993,516.667 600,516.667C554.007,516.667 516.667,554.007 516.667,600L516.667,1500C516.667,1545.99 554.007,1583.33 600,1583.33C645.993,1583.33 683.333,1545.99 683.333,1500L683.333,1133.33L816.667,1133.33L816.667,1500C816.667,1545.99 854.007,1583.33 900,1583.33C945.993,1583.33 983.333,1545.99 983.333,1500L983.333,600C983.333,554.007 945.993,516.667 900,516.667C854.007,516.667 816.667,554.007 816.667,600L816.667,966.667Z"/>
    <path d="M1284.88,685.261C1300.97,684.429 1325.46,683.44 1350.36,683.333C1374.16,683.23 1398.71,684.266 1415.18,685.19C1415.89,701.118 1416.71,725.333 1416.67,749.844C1416.58,794.955 1396.59,839.949 1374.69,878.359C1337.26,944.005 1290.68,991.475 1290.68,991.475C1258.51,1024.08 1258.69,1076.54 1291.08,1108.93C1291.08,1108.93 1337.6,1155.71 1374.91,1221C1396.8,1259.31 1416.71,1304.36 1416.67,1349.92C1416.64,1373.8 1415.62,1398.38 1414.72,1415.03C1398.7,1415.76 1374.52,1416.61 1349.82,1416.67C1325.21,1416.72 1301.06,1416.01 1284.91,1415.38C1284.09,1398.69 1283.2,1374.27 1283.33,1350.46C1283.59,1304.47 1246.45,1266.92 1200.46,1266.67C1154.47,1266.41 1116.92,1303.55 1116.67,1349.54C1116.38,1402.03 1117.01,1438.61 1121.64,1464.14C1128.05,1499.53 1141.69,1523.35 1159.77,1541.21C1177.72,1558.95 1201.57,1572.27 1236.75,1578.45C1262.16,1582.92 1298.42,1583.44 1350.18,1583.33C1402.1,1583.22 1438.37,1582.42 1463.76,1577.74C1498.76,1571.27 1522.44,1557.81 1540.26,1539.97C1558.09,1522.12 1571.51,1498.42 1577.91,1463.43C1582.55,1438.08 1583.28,1401.87 1583.33,1350.08C1583.44,1234.21 1509.8,1117.37 1458.19,1049.72C1509.58,981.807 1583.12,864.662 1583.33,750.156C1583.43,698.773 1582.71,662.586 1578.03,637.077C1571.67,602.375 1558.39,578.621 1540.67,560.653C1522.83,542.566 1499.13,528.905 1464.2,522.241C1438.54,517.346 1401.93,516.442 1349.64,516.667C1297.75,516.891 1261.36,517.852 1235.81,522.676C1201.01,529.247 1177.36,542.676 1159.56,560.416C1141.54,578.371 1128.05,602.13 1121.64,637.051C1116.96,662.525 1116.31,698.797 1116.67,750.577C1116.99,796.568 1154.59,833.65 1200.58,833.331C1246.57,833.013 1283.65,795.415 1283.33,749.423C1283.17,725.916 1284.06,701.654 1284.88,685.261Z"/>
</svg>
