<?xml version="1.0" encoding="UTF-8" standalone="no"?>
<!DOCTYPE svg PUBLIC "-//W3C//DTD SVG 1.1//EN" "http://www.w3.org/Graphics/SVG/1.1/DTD/svg11.dtd">
<svg width="100%" height="100%" viewBox="0 0 2100 2100" version="1.1" xmlns="http://www.w3.org/2000/svg" xmlns:xlink="http://www.w3.org/1999/xlink" xml:space="preserve" xmlns:serif="http://www.serif.com/" style="fill-rule:evenodd;clip-rule:evenodd;stroke-linejoin:round;stroke-miterlimit:2;">
    <path d="M441.667,870.833L441.667,1662.5C441.667,1708.52 478.976,1745.83 525,1745.83L875,1745.83C921.024,1745.83 958.333,1708.52 958.333,1662.5L958.333,1395.83C958.333,1395.83 1141.67,1395.83 1141.67,1395.83C1141.67,1499.35 1141.67,1662.5 1141.67,1662.5C1141.67,1708.52 1178.98,1745.83 1225,1745.83L1575,1745.83C1621.02,1745.83 1658.33,1708.52 1658.33,1662.5L1658.33,870.833L1837.5,870.833C1872.89,870.833 1904.42,848.48 1916.14,815.084C1927.85,781.688 1917.19,744.536 1889.56,722.428C1889.56,722.428 1623.57,509.636 1506.39,415.892C1456.44,375.935 1394.38,354.167 1330.42,354.167C1196.35,354.167 903.647,354.167 769.577,354.167C705.615,354.167 643.557,375.935 593.611,415.892C476.431,509.636 210.442,722.428 210.442,722.428C182.807,744.536 172.15,781.688 183.864,815.084C195.579,848.48 227.109,870.833 262.5,870.833L441.667,870.833ZM1491.67,870.833L1491.67,1579.17C1491.67,1579.17 1308.33,1579.17 1308.33,1579.17C1308.33,1475.65 1308.33,1312.5 1308.33,1312.5C1308.33,1266.48 1271.02,1229.17 1225,1229.17L875,1229.17C828.976,1229.17 791.667,1266.48 791.667,1312.5L791.667,1579.17L608.333,1579.17L608.333,870.833L1491.67,870.833ZM500.065,704.167C571.627,646.917 648.05,585.779 697.727,546.037C718.121,529.722 743.46,520.833 769.577,520.833C903.647,520.833 1196.35,520.833 1330.42,520.833C1356.54,520.833 1381.88,529.722 1402.27,546.037C1451.95,585.779 1528.37,646.917 1599.93,704.167C1599.93,704.167 500.065,704.167 500.065,704.167L500.065,704.167Z"/>
</svg>
