<?xml version="1.0" encoding="UTF-8" standalone="no"?>
<!DOCTYPE svg PUBLIC "-//W3C//DTD SVG 1.1//EN" "http://www.w3.org/Graphics/SVG/1.1/DTD/svg11.dtd">
<svg width="100%" height="100%" viewBox="0 0 2100 2100" version="1.1" xmlns="http://www.w3.org/2000/svg" xmlns:xlink="http://www.w3.org/1999/xlink" xml:space="preserve" xmlns:serif="http://www.serif.com/" style="fill-rule:evenodd;clip-rule:evenodd;stroke-linejoin:round;stroke-miterlimit:2;">
    <path d="M1883.33,600C1883.33,498.334 1842.95,400.831 1771.06,328.942C1699.17,257.053 1601.67,216.667 1500,216.667L600,216.667C498.334,216.667 400.831,257.053 328.942,328.942C257.053,400.831 216.667,498.334 216.667,600L216.667,1500C216.667,1601.67 257.053,1699.17 328.942,1771.06C400.831,1842.95 498.334,1883.33 600,1883.33C600,1883.33 1500,1883.33 1500,1883.33C1601.67,1883.33 1699.17,1842.95 1771.06,1771.06C1842.95,1699.17 1883.33,1601.67 1883.33,1500L1883.33,600ZM1716.67,600L1716.67,1500C1716.67,1557.46 1693.84,1612.57 1653.21,1653.21C1612.57,1693.84 1557.46,1716.67 1500,1716.67L600,1716.67C542.536,1716.67 487.426,1693.84 446.794,1653.21C406.161,1612.57 383.333,1557.46 383.333,1500L383.333,600C383.333,542.536 406.161,487.426 446.794,446.794C487.426,406.161 542.536,383.333 600,383.333L1500,383.333C1557.46,383.333 1612.57,406.161 1653.21,446.794C1693.84,487.426 1716.67,542.536 1716.67,600Z"/>
    <path d="M600,683.333L1500,683.333C1545.99,683.333 1583.33,645.993 1583.33,600C1583.33,554.007 1545.99,516.667 1500,516.667L600,516.667C554.007,516.667 516.667,554.007 516.667,600C516.667,645.993 554.007,683.333 600,683.333Z"/>
    <g transform="matrix(0.75,0,0,1,150,0)">
        <path d="M600,983.333L1200,983.333C1261.32,983.333 1311.11,945.993 1311.11,900C1311.11,854.007 1261.32,816.667 1200,816.667L600,816.667C538.676,816.667 488.889,854.007 488.889,900C488.889,945.993 538.676,983.333 600,983.333Z"/>
    </g>
    <path d="M1350,983.333L1500,983.333C1545.99,983.333 1583.33,945.993 1583.33,900C1583.33,854.007 1545.99,816.667 1500,816.667L1350,816.667C1304.01,816.667 1266.67,854.007 1266.67,900C1266.67,945.993 1304.01,983.333 1350,983.333Z"/>
    <path d="M600,1283.33L750,1283.33C795.993,1283.33 833.333,1245.99 833.333,1200C833.333,1154.01 795.993,1116.67 750,1116.67L600,1116.67C554.007,1116.67 516.667,1154.01 516.667,1200C516.667,1245.99 554.007,1283.33 600,1283.33Z"/>
    <g transform="matrix(1.5,0,0,1,-525,0)">
        <path d="M1050,1283.33L1350,1283.33C1380.66,1283.33 1405.56,1245.99 1405.56,1200C1405.56,1154.01 1380.66,1116.67 1350,1116.67L1050,1116.67C1019.34,1116.67 994.444,1154.01 994.444,1200C994.444,1245.99 1019.34,1283.33 1050,1283.33Z"/>
    </g>
    <g transform="matrix(1.5,0,0,1,-300,0)">
        <path d="M600,1583.33L1200,1583.33C1230.66,1583.33 1255.56,1545.99 1255.56,1500C1255.56,1454.01 1230.66,1416.67 1200,1416.67L600,1416.67C569.338,1416.67 544.444,1454.01 544.444,1500C544.444,1545.99 569.338,1583.33 600,1583.33Z"/>
    </g>
</svg>
