<?xml version="1.0" encoding="UTF-8" standalone="no"?>
<!DOCTYPE svg PUBLIC "-//W3C//DTD SVG 1.1//EN" "http://www.w3.org/Graphics/SVG/1.1/DTD/svg11.dtd">
<svg width="100%" height="100%" viewBox="0 0 2100 2100" version="1.1" xmlns="http://www.w3.org/2000/svg" xmlns:xlink="http://www.w3.org/1999/xlink" xml:space="preserve" xmlns:serif="http://www.serif.com/" style="fill-rule:evenodd;clip-rule:evenodd;stroke-linejoin:round;stroke-miterlimit:2;">
    <g transform="matrix(0.99746,0,0,0.99746,2.66882,2.66882)">
        <path d="M1883.33,600C1883.33,498.334 1842.95,400.831 1771.06,328.942C1699.17,257.053 1601.67,216.667 1500,216.667L600,216.667C498.334,216.667 400.831,257.053 328.942,328.942C257.053,400.831 216.667,498.334 216.667,600L216.667,1500C216.667,1601.67 257.053,1699.17 328.942,1771.06C400.831,1842.95 498.334,1883.33 600,1883.33L1500,1883.33C1601.67,1883.33 1699.17,1842.95 1771.06,1771.06C1842.95,1699.17 1883.33,1601.67 1883.33,1500L1883.33,600ZM1716.67,600L1716.67,1500C1716.67,1557.46 1693.84,1612.57 1653.21,1653.21C1612.57,1693.84 1557.46,1716.67 1500,1716.67L600,1716.67C542.536,1716.67 487.426,1693.84 446.794,1653.21C406.161,1612.57 383.333,1557.46 383.333,1500L383.333,600C383.333,542.536 406.161,487.426 446.794,446.794C487.426,406.161 542.536,383.333 600,383.333L1500,383.333C1557.46,383.333 1612.57,406.161 1653.21,446.794C1693.84,487.426 1716.67,542.536 1716.67,600Z"/>
    </g>
    <path d="M599.388,1283.33C613.491,1283.43 626.922,1291.39 640.7,1300.69C663.746,1316.24 685.724,1337.86 706.139,1361.08C775.4,1439.87 825.906,1538.14 825.906,1538.14C841.277,1568 873.07,1585.72 906.551,1583.08C940.032,1580.43 968.656,1557.95 979.156,1526.05C979.156,1526.05 1118.49,1100.54 1303.56,844.467C1339.51,794.721 1376.92,751.63 1415.78,721.268C1443.94,699.267 1471.74,683.601 1500.78,683.33C1546.77,682.9 1583.76,645.213 1583.33,599.222C1582.9,553.231 1545.21,516.241 1499.22,516.67C1387.12,517.717 1269.04,607.702 1168.48,746.842C1045.89,916.46 941.611,1155.47 880.102,1312.49C852.47,1274.8 820.319,1236.02 785.847,1204.11C728.03,1150.61 662.632,1117.12 600.612,1116.67C554.62,1116.33 517.007,1153.4 516.669,1199.39C516.331,1245.38 553.396,1282.99 599.388,1283.33Z"/>
</svg>
