<?xml version="1.0" encoding="UTF-8" standalone="no"?>
<!DOCTYPE svg PUBLIC "-//W3C//DTD SVG 1.1//EN" "http://www.w3.org/Graphics/SVG/1.1/DTD/svg11.dtd">
<svg width="100%" height="100%" viewBox="0 0 2100 2100" version="1.1" xmlns="http://www.w3.org/2000/svg" xmlns:xlink="http://www.w3.org/1999/xlink" xml:space="preserve" xmlns:serif="http://www.serif.com/" style="fill-rule:evenodd;clip-rule:evenodd;stroke-linejoin:round;stroke-miterlimit:2;">
    <g transform="matrix(0.99746,0,0,0.99746,2.66882,2.66882)">
        <path d="M1883.33,600C1883.33,498.334 1842.95,400.831 1771.06,328.942C1699.17,257.053 1601.67,216.667 1500,216.667L600,216.667C498.334,216.667 400.831,257.053 328.942,328.942C257.053,400.831 216.667,498.334 216.667,600L216.667,1500C216.667,1601.67 257.053,1699.17 328.942,1771.06C400.831,1842.95 498.334,1883.33 600,1883.33L1500,1883.33C1601.67,1883.33 1699.17,1842.95 1771.06,1771.06C1842.95,1699.17 1883.33,1601.67 1883.33,1500L1883.33,600ZM1716.67,600L1716.67,1500C1716.67,1557.46 1693.84,1612.57 1653.21,1653.21C1612.57,1693.84 1557.46,1716.67 1500,1716.67L600,1716.67C542.536,1716.67 487.426,1693.84 446.794,1653.21C406.161,1612.57 383.333,1557.46 383.333,1500L383.333,600C383.333,542.536 406.161,487.426 446.794,446.794C487.426,406.161 542.536,383.333 600,383.333L1500,383.333C1557.46,383.333 1612.57,406.161 1653.21,446.794C1693.84,487.426 1716.67,542.536 1716.67,600Z"/>
    </g>
    <g transform="matrix(1,0,0,1,0,-450)">
        <path d="M541.074,1108.93L991.074,1558.93C1023.6,1591.45 1076.4,1591.45 1108.93,1558.93C1141.45,1526.4 1141.45,1473.6 1108.93,1441.07L658.926,991.074C626.404,958.553 573.596,958.553 541.074,991.074C508.553,1023.6 508.553,1076.4 541.074,1108.93Z"/>
    </g>
    <g transform="matrix(1,0,0,1,0,-450)">
        <path d="M991.074,991.074L541.074,1441.07C508.553,1473.6 508.553,1526.4 541.074,1558.93C573.596,1591.45 626.404,1591.45 658.926,1558.93L1108.93,1108.93C1141.45,1076.4 1141.45,1023.6 1108.93,991.074C1076.4,958.553 1023.6,958.553 991.074,991.074Z"/>
    </g>
    <g transform="matrix(1,0,0,1,0,600)">
        <path d="M1141.07,808.926L1291.07,958.926C1323.62,991.469 1376.38,991.469 1408.93,958.926L1558.93,808.926C1591.45,776.404 1591.45,723.596 1558.93,691.074C1526.4,658.553 1473.6,658.553 1441.07,691.074L1350,782.149C1350,782.149 1258.93,691.074 1258.93,691.074C1226.4,658.553 1173.6,658.553 1141.07,691.074C1108.55,723.596 1108.55,776.404 1141.07,808.926Z"/>
    </g>
</svg>
