<?xml version="1.0" encoding="UTF-8" standalone="no"?>
<!DOCTYPE svg PUBLIC "-//W3C//DTD SVG 1.1//EN" "http://www.w3.org/Graphics/SVG/1.1/DTD/svg11.dtd">
<svg width="100%" height="100%" viewBox="0 0 2100 2100" version="1.1" xmlns="http://www.w3.org/2000/svg" xmlns:xlink="http://www.w3.org/1999/xlink" xml:space="preserve" xmlns:serif="http://www.serif.com/" style="fill-rule:evenodd;clip-rule:evenodd;stroke-linejoin:round;stroke-miterlimit:2;">
    <path d="M666.667,383.333L666.667,516.667L450,516.667C426.097,516.667 403.346,526.931 387.527,544.85C371.708,562.769 364.345,586.618 367.31,610.336L517.31,1810.34C522.523,1852.04 557.973,1883.33 600,1883.33L1500,1883.33C1542.03,1883.33 1577.48,1852.04 1582.69,1810.34L1732.69,610.336C1735.65,586.618 1728.29,562.769 1712.47,544.85C1696.65,526.931 1673.9,516.667 1650,516.667L1433.33,516.667L1433.33,383.333L1650,383.333C1695.99,383.333 1733.33,345.993 1733.33,300C1733.33,254.007 1695.99,216.667 1650,216.667L450,216.667C404.007,216.667 366.667,254.007 366.667,300C366.667,345.993 404.007,383.333 450,383.333L666.667,383.333ZM544.399,683.333L1555.6,683.333C1555.6,683.333 1426.43,1716.67 1426.43,1716.67C1426.43,1716.67 876.008,1716.67 673.565,1716.67C642.741,1470.08 544.399,683.333 544.399,683.333L544.399,683.333ZM833.333,383.333L833.333,516.667L1266.67,516.667L1266.67,383.333L833.333,383.333Z"/>
    <g transform="matrix(1,0,0,1,0,-1)">
        <path d="M667.23,855.676L750.23,1565.68C755.571,1611.36 796.994,1644.11 842.676,1638.77C888.358,1633.43 921.11,1592.01 915.77,1546.32L832.77,836.324C827.429,790.642 786.006,757.89 740.324,763.23C694.642,768.571 661.89,809.994 667.23,855.676Z"/>
    </g>
    <g transform="matrix(-1,0,0,1,2100,-1)">
        <path d="M832.77,836.324L915.77,1546.32C921.11,1592.01 888.358,1633.43 842.676,1638.77C796.994,1644.11 755.571,1611.36 750.23,1565.68L667.23,855.676C661.89,809.994 694.642,768.571 740.324,763.23C786.006,757.89 827.429,790.642 832.77,836.324Z"/>
    </g>
</svg>
