<?xml version="1.0" encoding="UTF-8" standalone="no"?>
<!DOCTYPE svg PUBLIC "-//W3C//DTD SVG 1.1//EN" "http://www.w3.org/Graphics/SVG/1.1/DTD/svg11.dtd">
<svg width="100%" height="100%" viewBox="0 0 2100 300" version="1.1" xmlns="http://www.w3.org/2000/svg" xmlns:xlink="http://www.w3.org/1999/xlink" xml:space="preserve" xmlns:serif="http://www.serif.com/" style="fill-rule:evenodd;clip-rule:evenodd;stroke-linejoin:round;stroke-miterlimit:2;">
    <path d="M1400.25,65.02C1399.98,64.381 1399.75,63.777 1399.56,63.236C1398.19,59.24 1395.8,47.782 1401.34,45.942C1404.9,44.76 1407.64,48.18 1409.55,52.32C1412.42,46.829 1419.08,36.668 1423.87,38.95C1429.14,41.464 1424.11,52.944 1420.46,59.551C1419.79,60.775 1418.97,62.101 1418.06,63.404C1436.4,66.097 1450.5,81.915 1450.5,101C1450.5,102.827 1450.37,104.624 1450.12,106.383C1464.33,97.583 1481.07,92.5 1499,92.5C1502.03,92.5 1505.02,92.645 1507.98,92.928C1508.98,88.038 1511.63,80.499 1516.46,81.077C1519.03,81.384 1520.32,83.438 1520.87,86.127C1524.3,80.785 1530.19,73.583 1534.31,75.769C1539.47,78.507 1534.07,89.537 1530.23,95.848C1529.9,96.385 1529.54,96.942 1529.15,97.505C1534.46,99.327 1539.56,101.615 1544.38,104.32C1550.36,91.161 1563.62,82 1579,82C1599.16,82 1615.67,97.728 1616.92,117.571C1621.11,112.771 1627.33,107.204 1630.89,109.712C1635.67,113.074 1628.79,123.548 1624.09,129.453C1623.37,130.358 1622.54,131.314 1621.64,132.259C1628.72,130.138 1636.23,129 1644,129C1655.28,129 1666,131.399 1675.68,135.713C1676.34,130.086 1680.4,126.146 1683.96,123.914C1684.78,123.399 1685.75,122.941 1686.85,122.573C1686.19,121.978 1685.59,121.403 1685.08,120.882C1681.44,117.163 1672.49,105.91 1676.69,101.846C1680.25,98.399 1687.13,104.021 1692.08,109.232C1692.03,108.495 1692,107.75 1692,107C1692,89.339 1706.34,75 1724,75C1730.62,75 1736.78,77.015 1741.88,80.465C1741.91,74.176 1742.97,66.343 1747.18,65.884C1752.99,65.25 1754.74,77.664 1755.11,85.201C1755.16,86.283 1755.17,87.462 1755.13,88.677C1757.4,84.502 1763.41,76.06 1768.3,78.554C1773.5,81.211 1769.36,90.291 1766.27,95.441C1765.9,96.043 1765.49,96.674 1765.03,97.308C1767.33,97.104 1769.65,97 1772,97C1787.59,97 1802.13,101.586 1814.32,109.482C1816.51,93.958 1829.87,82 1846,82C1852.79,82 1859.08,84.118 1864.26,87.727C1864.09,86.368 1863.99,85.089 1863.94,84.018C1863.72,78.712 1864.58,64.057 1870.42,63.844C1876.26,63.631 1877.11,76.138 1876.94,83.682C1876.9,85.393 1876.73,87.341 1876.43,89.277C1880.72,86.786 1889.55,82.999 1892.41,87.436C1895.58,92.351 1887.43,98.119 1882.17,101.012C1880.48,101.94 1878.34,102.847 1876.2,103.413C1877.37,106.729 1878,110.291 1878,114C1878,116.759 1877.65,119.436 1876.99,121.989C1885.54,119.395 1894.61,118 1904,118C1915.87,118 1927.23,120.229 1937.67,124.293C1937.36,123.932 1937.08,123.583 1936.81,123.255C1933.5,119.103 1925.54,106.771 1930.12,103.149C1934.71,99.526 1942.78,109.118 1947.1,115.307C1947.19,115.432 1947.28,115.56 1947.36,115.689C1948.49,111.612 1950.52,107.765 1953.91,107.9C1957.72,108.051 1959.06,112.337 1959.35,116.958C1976.4,95.654 2002.62,82 2032,82C2083.33,82 2125,123.672 2125,175C2125,199.499 2115.51,221.798 2100,238.416L2100,300L0,300L0,211C0,164.915 37.415,127.5 83.5,127.5C112.71,127.5 138.438,142.532 153.364,165.278C153.542,163.406 153.815,161.641 154.097,160.238C155.206,154.721 159.694,139.833 165.421,141.005C169.151,141.768 169.478,147.584 168.686,153.681C171.913,150.884 176.48,148.243 179.655,150.834C181.306,152.181 181.68,153.961 181.315,155.861C193.469,148.95 207.527,145 222.5,145C224.359,145 226.204,145.061 228.033,145.181C226.149,141.178 224.526,135.317 228.257,132.902C232.44,130.194 236.736,134.862 239.443,139.125C242.816,113.118 265.077,93 292,93C301.153,93 309.767,95.325 317.283,99.417C318.214,95.085 320.49,89.389 324.942,89.742C328.762,90.045 329.982,93.851 330.141,97.881C336.488,95.412 345.46,93.033 347.46,97.041C349.197,100.524 344.585,104.463 339.138,107.639C343.356,109.087 349.097,112.165 348.116,116.678C347.247,120.673 342.823,121.199 338.542,120.642C340.816,124.803 342.547,129.3 343.643,134.04C347.493,133.357 351.455,133 355.5,133C363.556,133 371.284,134.414 378.447,137.007C375.736,133.284 373.988,129.375 375.946,127.091C379.75,122.653 389.517,130.512 394.944,135.754C396.176,136.944 397.497,138.384 398.715,139.919C399.79,135.08 402.999,126.017 408.198,126.925C412.345,127.65 412.84,132.985 412.253,138.093C426.552,120.357 448.46,109 473,109C474.833,109 476.651,109.063 478.455,109.188C478.155,107.336 478,105.436 478,103.5C478,92.638 482.889,82.908 490.584,76.395C489.579,71.447 488.881,62.318 493.855,61.007C496.712,60.254 498.882,62.315 500.474,65.299C501.989,59.62 504.603,53.621 508.403,54.054C512.678,54.541 513.248,61.437 512.734,68.009C512.987,68.003 513.243,68 513.5,68C533.093,68 549,83.907 549,103.5C549,110.826 546.776,117.636 542.967,123.293C543.882,123.232 544.761,123.425 545.571,123.951C550.428,127.106 545.502,135.578 541.893,140.401C547.348,136.892 556.154,132.493 559.025,136.286C560.37,138.063 559.785,140.306 558.198,142.634C571.946,134.604 587.939,130 605,130C612.035,130 618.889,130.783 625.477,132.266C621.38,127.719 617.313,121.714 619.946,118.643C623.75,114.205 633.517,122.063 638.944,127.306C640.176,128.495 641.497,129.936 642.715,131.47C643.79,126.632 646.999,117.569 652.198,118.477C657.957,119.483 656.673,129.38 655.229,135.213C655.117,135.663 654.987,136.132 654.839,136.612C666.515,118.546 684.283,104.779 705.228,98.225C702.419,92.39 698.975,82.748 703.193,80.343C707.019,78.162 711.676,83.692 715.169,89.444C716.164,86.425 717.809,84.005 720.445,83.923C722.852,83.848 724.395,85.493 725.36,87.873C725.735,85.869 726.236,83.97 726.705,82.51C728.328,77.453 734.187,63.993 739.744,65.808C745.301,67.622 741.783,79.654 739.019,86.676C738.108,88.992 736.78,91.685 735.251,94.027C764.615,94.726 790.626,109.063 807.192,130.944C806.387,126.112 806.411,120.199 810.263,118.922C814.823,117.409 818.037,123.439 819.864,128.868C822.213,126.512 824.681,125.108 826.788,126.112C828.844,127.091 829.334,129.432 828.951,132.315C840.408,123.348 854.835,118 870.5,118C875.544,118 880.459,118.554 885.189,119.606C884.474,114.878 884.63,109.338 888.343,108.106C891.905,106.925 894.645,110.344 896.545,114.485C899.424,108.994 906.079,98.833 910.868,101.114C916.145,103.628 911.108,115.108 907.464,121.716C906.551,123.371 905.371,125.212 904.061,126.933C919.039,135.541 930.409,149.728 935.327,166.647C939.317,162.067 944.689,157.415 948.025,159.621C950.751,161.423 949.895,165.551 947.819,169.896C956.25,165.491 965.837,163 976,163C988.564,163 1000.25,166.807 1009.95,173.329C1012.27,167.42 1015.21,161.825 1018.7,156.623C1007.08,148.374 999.5,134.816 999.5,119.5C999.5,112.288 1001.18,105.465 1004.17,99.404C1003.16,99.257 1002.22,99.088 1001.41,98.915C996.218,97.805 982.24,93.32 983.49,87.61C984.595,82.561 994.356,83.772 1001.62,85.536C1000.59,80.521 1000.2,73.511 1004.43,72.106C1009.95,70.277 1013.49,79.478 1015,85.305C1023.01,78.269 1033.51,74 1045,74C1069.61,74 1089.68,93.581 1090.48,118.002C1090.65,118.001 1090.83,118 1091,118C1128.84,118 1161.07,142.207 1173.03,175.959C1183.5,166.292 1196.86,159.713 1211.66,157.673C1210.96,157.152 1210.33,156.647 1209.77,156.185C1205.7,152.774 1195.45,142.27 1199.23,137.808C1202.7,133.699 1211.31,139.988 1216.91,145.077C1215.08,139.332 1213.93,132.466 1217.5,130.766C1220.74,129.224 1224.15,132.823 1226.96,137.45C1226.82,129.372 1227.67,117.002 1232.45,116.612C1236.98,116.243 1238.94,125.535 1239.72,134.11C1245.25,124.487 1255.62,118 1267.5,118C1282.18,118 1294.57,127.914 1298.33,141.41C1303.67,136.679 1309.55,132.55 1315.87,129.133C1315.48,128.827 1315.11,128.53 1314.77,128.25C1310.7,124.839 1300.45,114.334 1304.23,109.872C1308,105.41 1317.82,113.208 1323.28,118.417C1324.72,119.791 1326.28,121.502 1327.66,123.308C1327.02,117.002 1327.22,108.849 1331.44,107.954C1335.72,107.044 1338.47,113.643 1340.05,120.148C1346.48,118.741 1353.15,118 1360,118C1366.74,118 1373.31,118.718 1379.64,120.081C1376.37,114.471 1374.5,107.952 1374.5,101C1374.5,84.31 1385.28,70.118 1400.25,65.02ZM1418.76,138.486L1418.58,138.789L1418.3,138.56C1418.45,138.536 1418.61,138.512 1418.76,138.486Z" style="fill:rgb(37,221,178);"/>
</svg>
