<?xml version="1.0" encoding="UTF-8" standalone="no"?>
<!DOCTYPE svg PUBLIC "-//W3C//DTD SVG 1.1//EN" "http://www.w3.org/Graphics/SVG/1.1/DTD/svg11.dtd">
<svg width="100%" height="100%" viewBox="0 0 300 300" version="1.1" xmlns="http://www.w3.org/2000/svg" xmlns:xlink="http://www.w3.org/1999/xlink" xml:space="preserve" xmlns:serif="http://www.serif.com/" style="fill-rule:evenodd;clip-rule:evenodd;stroke-linejoin:round;stroke-miterlimit:2;">
    <g transform="matrix(1.23548,0,0,1.22931,-35.5286,-34.9719)">
        <path d="M78.266,51.953C82.358,48.782 87.228,46.668 91.771,44.14C97.869,40.747 104.682,38.927 111.096,36.253C117.903,33.415 124.553,30.182 131.909,29.002C138.061,28.016 144.293,28.594 150.48,28.862C155.827,29.094 161.19,28.966 166.503,29.717C173.159,30.659 179.196,33.826 185.651,35.56C196.413,38.451 205.736,41.556 215.369,47.59C223.757,52.843 229.941,58.026 236.418,65.296C240.898,70.325 246.394,74.355 250.344,79.86C253.802,84.678 255.935,90.196 258.568,95.471C261.304,100.955 264.6,106.297 266.243,112.25C267.697,117.515 267.815,123.06 268.959,128.394C270.487,135.527 271.244,142.607 271.5,150C271.782,158.133 271.373,165.03 269.173,172.731C267.232,179.526 266.876,186.824 264.165,193.381C260.904,201.27 254.967,208.076 250.614,215.38C247.226,221.064 243.403,224.891 239.04,229.911C235.336,234.172 231.425,239.723 227.361,243.6C223.679,247.113 219.07,251.169 214.779,254.016C208.016,258.503 201.988,260.396 194.492,263.204C187.897,265.674 181.708,268.323 174.723,269.697C169.495,270.726 164.041,271.375 158.74,271.71C152.228,272.121 145.642,272.993 139.132,272.102C133.791,271.37 128.616,270.232 123.363,269.033C117.187,267.622 110.666,266.101 104.823,263.522C98.258,260.624 92.481,255.633 86.415,251.845C79.863,247.755 73.641,243.2 67.934,237.934C62.467,232.89 58.422,226.677 53.867,220.867C48.077,213.48 42.351,207.438 38.544,198.715C36.324,193.629 34.455,187.025 33.436,181.632C32.358,175.931 29.673,170.493 28.979,164.75C28.398,159.942 29.752,155.043 29.663,150.216C29.55,144.111 29.697,137.295 30.758,131.19C31.912,124.553 34.255,119.594 35.959,113.093C38.196,104.559 42.982,94.181 46.718,86.013C51.217,76.176 55.47,72.348 62.769,64.807C67.359,60.066 72.518,55.235 78.266,51.953Z" style="fill:rgb(224,90,96);"/>
    </g>
</svg>
