<?xml version="1.0" encoding="UTF-8" standalone="no"?>
<!DOCTYPE svg PUBLIC "-//W3C//DTD SVG 1.1//EN" "http://www.w3.org/Graphics/SVG/1.1/DTD/svg11.dtd">
<svg width="100%" height="100%" viewBox="0 0 2100 2100" version="1.1" xmlns="http://www.w3.org/2000/svg" xmlns:xlink="http://www.w3.org/1999/xlink" fill="#282827" xml:space="preserve" xmlns:serif="http://www.serif.com/" style="fill-rule:evenodd;clip-rule:evenodd;stroke-linejoin:round;stroke-miterlimit:2;">
    <path d="M900,390C900,257.452 792.548,150 660,150L390,150C257.452,150 150,257.452 150,390L150,660C150,792.548 257.452,900 390,900L660,900C792.548,900 900,792.548 900,660L900,390Z"/>
    <path d="M1950,390C1950,257.452 1842.55,150 1710,150L1440,150C1307.45,150 1200,257.452 1200,390L1200,660C1200,792.548 1307.45,900 1440,900L1710,900C1842.55,900 1950,792.548 1950,660L1950,390Z"/>
    <path d="M1950,1440C1950,1307.45 1842.55,1200 1710,1200L1440,1200C1307.45,1200 1200,1307.45 1200,1440L1200,1710C1200,1842.55 1307.45,1950 1440,1950L1710,1950C1842.55,1950 1950,1842.55 1950,1710L1950,1440Z"/>
    <path d="M900,1440C900,1307.45 792.548,1200 660,1200L390,1200C257.452,1200 150,1307.45 150,1440L150,1710C150,1842.55 257.452,1950 390,1950L660,1950C792.548,1950 900,1842.55 900,1710L900,1440Z"/>
</svg>
