<svg width="100%" height="100%" viewBox="0 0 1350 300" version="1.1" xmlns="http://www.w3.org/2000/svg" xmlnsXlink="http://www.w3.org/1999/xlink" xmlSpace="preserve" xmlnsSerif="http://www.serif.com/" style="fill-rule:evenodd;clip-rule:evenodd;stroke-linejoin:round;stroke-miterlimit:2;">
    <g transform="matrix(0.859296,0,0,0.855856,-9.15829,40.5405)">
        <path d="M295.263,303.158C266.316,303.158 245,295.033 231.316,278.783C217.632,262.533 210.789,238.618 210.789,207.039L210.789,-47.368L278.289,-47.368L278.289,204.276C278.289,210.066 278.618,215.625 279.276,220.954C279.934,226.283 281.447,230.658 283.816,234.079C286.184,237.5 290,239.211 295.263,239.211C300.658,239.211 304.539,237.533 306.908,234.178C309.276,230.822 310.757,226.447 311.349,221.053C311.941,215.658 312.237,210.066 312.237,204.276L312.237,-47.368L379.737,-47.368L379.737,207.039C379.737,238.618 372.895,262.533 359.211,278.783C345.526,295.033 324.211,303.158 295.263,303.158Z" style="fill-rule:nonzero;"/>
    </g>
    <g transform="matrix(0.859296,0,0,0.863636,-9.15829,40.9091)">
        <rect x="403.224" y="-47.368" width="67.105" height="347.368" style="fill-rule:nonzero;"/>
    </g>
    <g transform="matrix(1,0,0,1.10529,0,8.19546e-16)">
        <path d="M161.457,271.421L71.74,271.421C48.448,271.421 30.669,265.206 18.401,252.776C6.134,240.346 0,222.211 0,198.37L0,70.759C0,47.631 6.303,30.056 18.91,18.034C31.517,6.011 49.749,0 73.606,0C97.462,0 115.694,6.011 128.301,18.034C140.908,30.056 147.211,47.631 147.211,70.759L147.211,198.37C147.211,205.617 146.408,214.557 144.941,223.758L161.457,223.758L161.457,271.421ZM73.606,221.905C77.902,221.905 80.983,220.479 82.849,217.626C84.714,214.773 85.901,211.258 86.41,207.081C86.919,202.904 87.173,198.879 87.173,195.008L87.173,71.676C87.173,65.97 86.297,60.851 84.545,56.317C82.792,51.783 79.033,49.516 73.266,49.516C67.387,49.516 63.543,51.732 61.734,56.164C59.925,60.596 59.02,65.716 59.02,71.523L59.02,196.077C59.02,199.643 59.274,203.439 59.783,207.463C60.292,211.488 61.564,214.901 63.599,217.702C65.634,220.504 68.97,221.905 73.606,221.905Z" style="fill-rule:nonzero;"/>
    </g>
    <g transform="matrix(0.859296,0,0,0.855856,-9.15829,40.5405)">
        <path d="M578.882,303.158C553.75,303.158 533.52,295.329 518.191,279.671C502.862,264.013 495.197,242.105 495.197,213.947L495.197,56.842C495.197,23.158 501.875,-2.632 515.23,-20.526C528.586,-38.421 550.329,-47.368 580.461,-47.368C596.908,-47.368 611.546,-44.342 624.375,-38.289C637.204,-32.237 647.303,-23.191 654.671,-11.151C662.039,0.888 665.724,16.053 665.724,34.342L665.724,94.342L596.645,94.342L596.645,43.026C596.645,32.632 595.329,25.625 592.697,22.007C590.066,18.388 585.987,16.579 580.461,16.579C574.013,16.579 569.671,18.914 567.434,23.586C565.197,28.257 564.079,34.474 564.079,42.237L564.079,212.961C564.079,222.566 565.493,229.342 568.322,233.289C571.151,237.237 575.197,239.211 580.461,239.211C586.382,239.211 590.559,236.776 592.993,231.908C595.428,227.039 596.645,220.724 596.645,212.961L596.645,150.395L666.513,150.395L666.513,216.118C666.513,246.645 658.816,268.783 643.421,282.533C628.026,296.283 606.513,303.158 578.882,303.158Z" style="fill-rule:nonzero;"/>
    </g>
    <g transform="matrix(0.859296,0,0,0.863636,-9.15829,40.9091)">
        <path d="M689.605,300L689.605,-47.368L758.289,-47.368L758.289,91.776L790.658,-47.368L860.526,-47.368L821.645,111.711L868.618,300L796.579,300L758.684,131.842L758.684,300L689.605,300Z" style="fill-rule:nonzero;"/>
    </g>
    <g transform="matrix(0.859296,0,0,0.863636,-9.15829,40.9091)">
        <path d="M880.461,300L880.461,-47.368L951.908,-47.368L983.882,119.013L983.882,-47.368L1050.99,-47.368L1050.99,300L983.092,300L948.355,126.316L948.355,300L880.461,300Z" style="fill-rule:nonzero;"/>
    </g>
    <g transform="matrix(0.859296,0,0,0.855856,-9.15829,40.5405)">
        <path d="M1164.67,303.158C1136.91,303.158 1115.69,294.77 1101.02,277.993C1086.35,261.217 1079.01,236.974 1079.01,205.263L1079.01,43.421C1079.01,13.684 1086.28,-8.882 1100.82,-24.276C1115.36,-39.671 1136.64,-47.368 1164.67,-47.368C1192.7,-47.368 1213.98,-39.671 1228.52,-24.276C1243.06,-8.882 1250.33,13.684 1250.33,43.421L1250.33,205.263C1250.33,236.974 1242.99,261.217 1228.32,277.993C1213.65,294.77 1192.43,303.158 1164.67,303.158ZM1165.26,239.211C1175.79,239.211 1181.05,229.013 1181.05,208.618L1181.05,42.237C1181.05,25.132 1175.92,16.579 1165.66,16.579C1154.08,16.579 1148.29,25.329 1148.29,42.829L1148.29,209.013C1148.29,219.803 1149.61,227.533 1152.24,232.204C1154.87,236.875 1159.21,239.211 1165.26,239.211Z" style="fill-rule:nonzero;"/>
    </g>
    <g transform="matrix(0.859296,0,0,0.863636,-9.15829,40.9091)">
        <path d="M1308.16,300L1308.16,19.342L1266.91,19.342L1266.91,-47.368L1418.88,-47.368L1418.88,19.342L1377.63,19.342L1377.63,300L1308.16,300Z" style="fill-rule:nonzero;"/>
    </g>
    <g transform="matrix(0.859296,0,0,0.863636,-9.15829,40.9091)">
        <path d="M1438.22,300L1438.22,-47.368L1581.71,-47.368L1581.71,19.737L1508.88,19.737L1508.88,87.434L1574.41,87.434L1574.41,152.763L1508.88,152.763L1508.88,232.303L1581.71,232.303L1581.71,300L1438.22,300Z" style="fill-rule:nonzero;"/>
    </g>
</svg>
